<svg width="204" height="40" viewBox="0 0 204 40" fill="none" xmlns="http://www.w3.org/2000/svg">
<g clip-path="url(#clip0_1018_3936)">
<path d="M32.1137 33.4504C30.0229 34.837 27.5716 35.5805 25.0628 35.589C20.9858 35.589 17.1429 33.6173 14.4695 30.1756L14.4362 30.1421C12.3976 27.736 11.1946 24.1938 11.0945 20.4512V19.5823C11.1946 15.8395 12.3976 12.2973 14.4695 9.85803C17.1429 6.41595 20.9858 4.44441 25.0628 4.44441C27.5716 4.45295 30.0229 5.19651 32.1137 6.58316C33.9964 8.27813 35.5019 10.3499 36.5324 12.6642C37.5628 14.9785 38.0953 17.4835 38.0953 20.0168C38.0953 22.5501 37.5628 25.0551 36.5324 27.3694C35.5019 29.6837 33.9964 31.7555 32.1137 33.4504ZM19.1478 38.0619C14.4959 37.8568 10.1035 35.8607 6.88972 32.4911C3.67591 29.1216 1.8897 24.6397 1.90482 19.9833C1.90482 10.0251 10.0251 1.87137 20.0167 1.87137H20.0836C21.6529 1.88082 23.2143 2.09426 24.7285 2.50631C20.1838 2.60648 15.9399 4.8454 13.0326 8.62159C10.7268 11.3617 9.32326 15.3049 9.25653 19.5154V20.4177C9.3567 24.5949 10.7268 28.538 13.0326 31.2782C15.9733 35.0877 20.2172 37.3268 24.762 37.427C22.9395 37.9524 21.0416 38.167 19.1478 38.0619ZM33.3167 5.07935C29.6745 1.80434 24.9482 -0.00521907 20.0502 -4.01804e-06H19.9833C14.7634 0.00291149 9.75158 2.04704 6.01863 5.69566C2.28568 9.34429 0.127592 14.3081 0.00542924 19.5266C-0.116734 24.745 1.80672 29.8044 5.36484 33.6237C8.92297 37.443 13.8336 39.7194 19.0477 39.9666C19.3483 39.9666 19.6826 40 19.9833 40C24.0371 40.0036 27.9962 38.7753 31.3361 36.4777C34.6759 34.1801 37.2386 30.9218 38.6846 27.1347C40.1306 23.3476 40.3916 19.2105 39.4329 15.2717C38.4743 11.3329 36.3413 7.77839 33.3167 5.07935Z" fill="#0ED3DF"/>
<path d="M23.6592 7.38514C27.2349 9.69079 29.6743 14.4695 29.6743 20.0167C29.6743 25.5639 27.2014 30.3424 23.6592 32.6483C28.2039 32.2474 31.8463 26.7669 31.8463 20.0167C31.8463 13.2665 28.2039 7.78614 23.6592 7.38514Z" fill="#0ED3DF"/>
<path d="M60.5161 12.7285C63.1207 12.7285 64.849 13.8582 66.2953 16.5058L66.3387 16.5855L67.5554 15.7203L67.5267 15.6592C66.2406 12.936 63.6289 11.3103 60.5404 11.3103C58.431 11.3103 56.338 12.249 54.7981 13.8859C53.2024 15.5954 52.322 17.8512 52.3378 20.1898C52.3378 25.2519 55.8122 29.0692 60.4196 29.0692C64.5108 29.0692 66.3523 26.7479 67.4997 24.7257L67.5358 24.6621L66.3375 23.8178L66.2946 23.8989C64.9252 26.4938 63.1354 27.651 60.4921 27.651C56.7009 27.651 53.9492 24.5132 53.9492 20.1898C53.9492 16.0757 56.8951 12.7285 60.5161 12.7285Z" fill="black"/>
<path d="M73.9083 16.2416C72.3241 16.2416 71.1163 17.3473 70.5323 18.5442V16.58H68.9691V28.7307H70.5323V22.0994C70.5323 19.6666 72.0119 17.6114 73.7633 17.6114C74.0579 17.6075 74.3515 17.647 74.6346 17.7288L74.7193 17.7543L74.993 16.3859L74.9216 16.3656C74.592 16.2732 74.2504 16.2313 73.9083 16.2416Z" fill="black"/>
<path d="M80.8706 26.6209L76.8637 16.5801H75.1177L80.0578 28.6502L79.0551 31.1097C78.7146 31.9496 78.2467 32.3407 77.5826 32.3407C77.2923 32.3421 77.0055 32.278 76.7434 32.1533L76.6516 32.115L76.3791 33.559L76.4407 33.5835C76.8183 33.7377 77.2232 33.8138 77.631 33.8072C78.9687 33.8072 79.8081 33.1414 80.4369 31.5815L86.5769 16.6914L86.6228 16.5801H84.9252L80.8706 26.6209Z" fill="black"/>
<path d="M93.271 16.2415C92.3864 16.2371 91.5164 16.4669 90.7494 16.9076C89.9824 17.3483 89.3457 17.9842 88.904 18.7506V16.58H87.3406V33.6621H88.904V26.8043C89.7764 28.2285 91.3764 29.0692 93.2468 29.0692C96.5851 29.0692 99.0081 26.3718 99.0081 22.6554C99.0081 18.9988 96.5418 16.2415 93.271 16.2415ZM97.3965 22.6554C97.3965 25.6254 95.6204 27.6995 93.0777 27.6995C90.5348 27.6995 88.7588 25.6254 88.7588 22.6554C88.7588 19.6855 90.5348 17.6114 93.0777 17.6114C95.6204 17.6114 97.3965 19.6855 97.3965 22.6554Z" fill="black"/>
<path d="M102.828 13.3409H101.265V16.5801H99.1617V17.8048H101.265V25.7736C101.265 28.2034 102.767 29.0691 104.174 29.0691C104.625 29.0829 105.076 29.016 105.504 28.8718L105.566 28.8513L105.428 27.5298L105.335 27.5578C105.051 27.6407 104.759 27.6883 104.464 27.6996C103.363 27.6996 102.828 27.0932 102.828 25.8462V17.8048H105.825V16.5801H102.828V13.3409Z" fill="black"/>
<path d="M112.32 16.2415C109.229 16.2415 106.1 18.4447 106.1 22.6554C106.1 26.8662 109.229 29.0692 112.32 29.0692C115.411 29.0692 118.541 26.8662 118.541 22.6554C118.541 18.4447 115.411 16.2415 112.32 16.2415ZM116.977 22.6554C116.977 25.5782 115.019 27.6995 112.32 27.6995C109.622 27.6995 107.663 25.5782 107.663 22.6554C107.663 19.7327 109.622 17.6114 112.32 17.6114C115.019 17.6114 116.977 19.7327 116.977 22.6554Z" fill="black"/>
<path d="M134.606 19.628C136.02 19.0973 137.444 17.8166 137.444 15.6938C137.444 13.312 135.254 11.6486 132.118 11.6486H126.26V28.7309H132.19C135.585 28.7309 138.048 26.684 138.048 23.8639C138.048 21.7642 136.89 20.3401 134.606 19.628ZM132.07 18.9489H127.872V13.0668H132.07C133.201 13.0668 135.832 13.3534 135.832 16.0079C135.832 18.6623 133.201 18.9489 132.07 18.9489ZM127.872 20.3671H131.876C133.247 20.3671 136.437 20.7055 136.437 23.8398C136.437 26.0144 134.732 27.3127 131.876 27.3127H127.872V20.3671Z" fill="black"/>
<path d="M145.596 17.7543L145.87 16.3858L145.799 16.3655C145.469 16.2732 145.127 16.2314 144.785 16.2416C143.201 16.2416 141.993 17.3474 141.409 18.5443V16.5801H139.846V28.7308H141.409V22.0995C141.409 19.6666 142.889 17.6115 144.64 17.6115C144.935 17.6075 145.228 17.6471 145.511 17.7288L145.596 17.7543Z" fill="black"/>
<path d="M151.723 16.2415C148.632 16.2415 145.503 18.4447 145.503 22.6554C145.503 26.8662 148.632 29.0692 151.723 29.0692C154.814 29.0692 157.944 26.8662 157.944 22.6554C157.944 18.4447 154.814 16.2415 151.723 16.2415ZM156.381 22.6554C156.381 25.5782 154.422 27.6995 151.723 27.6995C149.025 27.6995 147.066 25.5782 147.066 22.6554C147.066 19.7327 149.025 17.6114 151.723 17.6114C154.422 17.6114 156.381 19.7327 156.381 22.6554Z" fill="black"/>
<path d="M169.443 26.8962L166.62 16.6392L166.603 16.5801H164.885L162.046 26.8962L159.223 16.6392L159.207 16.5801H157.636L161.147 28.6727L161.164 28.7308H162.905L165.744 18.4145L168.567 28.6716L168.584 28.7308H170.325L173.853 16.5801H172.282L169.443 26.8962Z" fill="black"/>
<path d="M179.369 21.7059C177.074 21.279 176.051 20.5801 176.051 19.4404C176.051 18.177 177.37 17.6114 178.677 17.6114C180.243 17.6114 181.418 18.4172 181.987 19.8805L182.02 19.968L183.299 19.2332L183.272 19.1677C182.463 17.2261 180.909 16.2415 178.653 16.2415C176.295 16.2415 174.584 17.5666 174.584 19.3922C174.584 21.7547 176.803 22.6323 178.663 22.9522C180.917 23.3485 181.836 24.0399 181.836 25.3387C181.836 26.7728 180.7 27.6995 178.943 27.6995C177.173 27.6995 175.87 26.672 175.273 24.8064L175.242 24.7094L173.888 25.5218L173.912 25.5851C174.752 27.7667 176.632 29.0692 178.943 29.0692C181.868 29.0692 183.399 27.1558 183.399 25.266C183.399 23.3737 182.081 22.2093 179.369 21.7059" fill="black"/>
<path d="M190.208 16.2416C186.786 16.2416 184.205 18.9989 184.205 22.6555C184.205 26.3118 186.755 29.0691 190.136 29.0691C192.69 29.0691 194.493 27.9077 195.647 25.5187L195.679 25.4521L194.524 24.7645L194.486 24.845C193.586 26.7658 192.187 27.6995 190.208 27.6995C187.721 27.6995 185.906 25.7123 185.772 22.8569H195.993V22.3168C195.993 18.6263 193.723 16.2416 190.208 16.2416H190.208ZM194.308 21.487H185.783C186.181 19.2356 188.028 17.6115 190.208 17.6115C192.147 17.6115 194.243 18.8249 194.308 21.487Z" fill="black"/>
<path d="M202.705 16.2415C201.121 16.2415 199.913 17.3473 199.329 18.5442V16.58H197.766V28.7307H199.329V22.0994C199.329 19.6666 200.809 17.6114 202.56 17.6114C202.855 17.6075 203.149 17.647 203.432 17.7288L203.517 17.7543L203.79 16.3859L203.719 16.3656C203.389 16.2732 203.048 16.2313 202.705 16.2415" fill="black"/>
</g>
<defs>
<clipPath id="clip0_1018_3936">
<rect width="203.79" height="40" fill="white"/>
</clipPath>
</defs>
</svg>
