<?xml version="1.0" encoding="UTF-8"?>
<svg width="136px" height="36px" viewBox="0 0 136 36" version="1.1" xmlns="http://www.w3.org/2000/svg" xmlns:xlink="http://www.w3.org/1999/xlink">
    <title>opera-logo__opera-mini--h-black</title>
    <defs>
        <linearGradient x1="49.9999911%" y1="-7.10564761e-05%" x2="49.9999911%" y2="99.9999564%" id="linearGradient-1">
            <stop stop-color="#9C0000" offset="0%"></stop>
            <stop stop-color="#FF4B4B" offset="70%"></stop>
        </linearGradient>
        <linearGradient x1="49.9991331%" y1="0.00187132729%" x2="49.9991331%" y2="99.9995344%" id="linearGradient-2">
            <stop stop-color="#FF1B2D" offset="30%"></stop>
            <stop stop-color="#FA1A2C" offset="43.812%"></stop>
            <stop stop-color="#ED1528" offset="59.385%"></stop>
            <stop stop-color="#D60E21" offset="75.809%"></stop>
            <stop stop-color="#B70519" offset="92.723%"></stop>
            <stop stop-color="#A70014" offset="100%"></stop>
        </linearGradient>
    </defs>
    <g id="opera-logo__opera-mini--h-black" stroke="none" stroke-width="1" fill="none" fill-rule="evenodd">
        <g id="-(transparent)Artboard-1" transform="translate(0.000000, 0.349515)">
            <path d="M62.7853683,15.1338159 C61.2806351,15.1361262 59.8635955,15.8421211 58.9554806,17.0419355 L58.9554806,15.3933867 L57.7078677,15.3933867 L57.7078677,29.7300621 L58.9554806,29.7300621 L58.9554806,24.58891 C59.8636147,25.7886729 61.2806645,26.4945898 62.7853683,26.4968052 C65.6964681,26.4968052 68.0649543,23.9481124 68.0649543,20.8153061 C68.0649543,17.6827552 65.6964681,15.1338159 62.7853683,15.1338159 Z M62.7853683,25.2641434 C60.5538151,25.2641434 58.7384528,23.2685481 58.7384528,20.815315 C58.7384528,18.3623019 60.5538151,16.3667329 62.7853683,16.3667329 C65.0168246,16.3667329 66.8321737,18.3623019 66.8321737,20.815315 C66.8321737,23.2685481 65.0168026,25.2641434 62.7853683,25.2641434 Z" id="Shape" fill="#000000" fill-rule="nonzero"></path>
            <path d="M48.8900194,10.9480396 C44.7216458,10.9480396 41.330378,14.503194 41.330378,18.8732129 C41.330378,23.2430118 44.7216458,26.7983907 48.8900414,26.7983907 C53.0585074,26.7983907 56.4497709,23.243025 56.4497709,18.8732129 C56.4497709,14.503194 53.0584854,10.9480396 48.8900194,10.9480396 Z M48.8900194,25.6081486 C45.3779361,25.6081486 42.5206157,22.5868316 42.5206157,18.8732129 C42.5206157,15.1593786 45.3779361,12.1382773 48.8900194,12.1382773 C52.4021908,12.1382773 55.2595112,15.1593786 55.2595112,18.8732129 C55.2595112,22.5868316 52.4021908,25.6081486 48.8900194,25.6081486 L48.8900194,25.6081486 Z" id="Shape" fill="#000000" fill-rule="nonzero"></path>
            <path d="M85.5207744,15.177556 C85.0958129,15.1958409 84.6804839,15.3099635 84.3058454,15.5113898 C83.5324104,15.9251177 82.9292596,16.5978575 82.6021043,17.4117015 C82.5938783,17.4314105 82.5845696,17.450675 82.5756966,17.4699394 L82.5642136,17.4677652 L82.5642136,15.481505 L82.5627083,15.481505 L82.5627083,15.4615759 L81.3150734,15.4615759 L81.3150734,26.2032608 L82.5646361,26.2032608 L82.5646361,26.1307451 C82.5646361,24.1983788 82.5648562,22.4980883 82.5646361,20.56592 C82.5508762,19.8588863 82.6815652,19.1564831 82.9487019,18.5017129 C83.1755019,17.920931 83.5382231,17.4029799 84.0064606,16.9912766 C84.5360053,16.5080488 85.258747,16.2959183 85.9654548,16.4162959 C86.0858082,16.4353359 86.2050964,16.4617613 86.3304585,16.4859904 C86.4016627,16.1305243 86.5709584,15.6780668 86.6430561,15.317834 C86.2775188,15.2180323 85.8996308,15.1707987 85.5207744,15.177556 Z" id="Path" fill="#000000" fill-rule="nonzero"></path>
            <path d="M74.4632394,15.1509326 C71.5521395,15.1509326 69.1837634,17.6996254 69.1837634,20.8324272 C69.1837634,23.965229 71.5521395,26.5137061 74.4632394,26.5137061 C76.5354884,26.4755011 78.3927219,25.2256218 79.2084334,23.3202897 L78.1335801,22.6948658 C77.5443588,24.2188231 76.0965932,25.2390192 74.4632394,25.2812425 C72.354654,25.2812425 70.6195184,23.4982781 70.4348577,21.2320515 L79.7282175,21.2320515 C79.7368836,21.1000127 79.7427417,20.9670936 79.7427417,20.832414 C79.7427417,17.4872497 77.5717944,15.1509326 74.4632394,15.1509326 Z M74.4632394,16.3836031 C76.6677509,16.3836031 78.2091327,17.8691456 78.4676163,20.1439899 L70.4699272,20.1439899 C70.7725691,18.0174296 72.4453691,16.3836031 74.4632394,16.3836031 Z" id="Shape" fill="#000000" fill-rule="nonzero"></path>
            <path d="M95.4854812,15.3933867 L95.4854812,17.0419355 C94.5773529,15.8421373 93.1603219,15.1361467 91.6555935,15.1338159 C88.7444937,15.1338159 86.3761175,17.6827552 86.3761175,20.815315 C86.3761175,23.9481212 88.7444937,26.496814 91.6555935,26.496814 C93.1602925,26.4945781 94.5773336,25.7886655 95.4854812,24.5889188 L95.4854812,26.2032608 L96.7330941,26.2032608 L96.7330941,15.3933867 L95.4854812,15.3933867 Z M91.6555935,25.2641434 C89.4240404,25.2641434 87.6088101,23.2685481 87.6088101,20.815315 C87.6088101,18.3623019 89.4240404,16.3667329 91.6555935,16.3667329 C93.8871467,16.3667329 95.702399,18.3623019 95.702399,20.815315 C95.702399,23.2685481 93.8871467,25.2641434 91.6555935,25.2641434 Z" id="Shape" fill="#000000" fill-rule="nonzero"></path>
            <path d="M35.3854174,17.934298 C35.3903315,12.4943824 32.8881478,7.35570299 28.602741,4.00488311 C26.8614068,3.183291 24.9597529,2.75746997 23.0343288,2.75799589 C18.2796104,2.75799589 14.0793098,5.35886654 11.5537546,9.28628246 C13.1619876,6.96937942 15.4127524,5.52959275 17.9040303,5.52959275 C22.7915314,5.52959275 26.7536339,11.0706421 26.7536339,17.90587 C26.7536339,24.741098 22.7915314,30.2821297 17.9040259,30.2821297 C15.1762268,30.2821297 12.7368049,28.5559772 11.1134535,25.8422843 C13.5724567,30.1839676 17.9915632,33.0423619 23.0343244,33.0423619 C25.6770597,33.0423619 27.541897,32.4314975 28.9392683,31.5931257 C33.0250818,28.235301 35.3906533,23.2228546 35.3854174,17.934298 Z" id="Path" fill="url(#linearGradient-1)" fill-rule="nonzero"></path>
            <path d="M23.0343288,33.0423487 C17.9915676,33.0423487 13.5724479,30.1839676 11.1134579,25.8422711 C9.76692346,23.4408307 9.0581607,20.7344241 9.05478317,17.9812334 C9.05473916,17.9737996 9.05451909,17.9157377 9.05449269,17.8941318 C9.05468634,17.6041774 9.06197489,17.3166834 9.07635832,17.0316497 C9.21380583,14.2782034 10.0677733,11.6083554 11.5537722,9.28625165 C14.079301,5.35884453 18.2795972,2.75797437 23.0343288,2.75797437 C24.9597546,2.75745484 26.8614085,3.1832834 28.602741,4.00488311 C21.3014531,-1.7134724 10.8236638,-0.823626179 4.59127317,6.04410277 C-1.6411175,12.9118317 -1.51285486,23.4265568 4.88520676,30.1402146 C11.2832684,36.8538725 21.779646,37.4878678 28.9392728,31.5931125 C27.5419014,32.4314843 25.6770641,33.0423487 23.0343288,33.0423487 Z" id="Path" fill="url(#linearGradient-2)" fill-rule="nonzero"></path>
            <path d="M36.7498364,18.6872539 L21.3496189,18.6872539 C16.3558661,18.6872539 15.7214592,23.6653424 15.7214592,25.5083405 L15.7214592,28.0602902 L29.7082977,28.0602902 C36.1357986,28.0602902 36.7498364,22.582712 36.7498364,20.7490667 L36.7498364,18.6872539 Z" id="Path" fill="#439F46"></path>
            <path d="M20.0617121,21.0475801 L20.983286,21.0475801 L22.4616148,24.7334617 L23.9399612,21.0475801 L24.8604347,21.0475801 L24.8604347,25.6902107 L24.0118651,25.6902107 L24.0118651,22.8551213 C23.972852,22.9744492 23.786959,23.5633336 23.786959,23.5633336 L22.8792492,25.6902107 L22.0439671,25.6902107 L21.135716,23.5633336 C21.135716,23.5633336 20.9492948,22.9744404 20.9102817,22.8551213 L20.9102817,25.6902107 L20.0617121,25.6902107 L20.0617121,21.0475801 Z" id="Path" fill="#FFFFFF" fill-rule="nonzero"></path>
            <polygon id="Path" fill="#FFFFFF" fill-rule="nonzero" points="25.4943883 21.0475801 26.3721957 21.0475801 26.3721957 25.6902107 25.4943883 25.6902107"></polygon>
            <path d="M27.006145,21.0475801 L27.8976888,21.0475801 L29.8321458,23.9997968 C29.8321458,23.9997968 29.9907156,24.2671578 30.0297287,24.3665962 L30.0297287,21.0475801 L30.8782762,21.0475801 L30.8782762,25.6902107 L29.9925421,25.6902107 L28.0551935,22.7214144 C27.9821142,22.6038066 27.9151976,22.4824797 27.8547146,22.3579247 L27.8547146,25.6902107 L27.006145,25.6902107 L27.006145,21.0475801 Z" id="Path" fill="#FFFFFF" fill-rule="nonzero"></path>
            <polygon id="Path" fill="#FFFFFF" fill-rule="nonzero" points="31.5220008 21.0475801 32.3900593 21.0475801 32.3900593 25.6902107 31.5220008 25.6902107"></polygon>
            <path d="M103.543543,11.5952104 L104.991767,11.5952104 L110.656805,25.2493463 L116.321927,11.5952104 L117.770129,11.5952104 L117.770129,26.2097087 L116.534875,26.2097087 L116.534875,13.7874071 C116.407105,14.1632028 115.768169,15.7916774 115.768169,15.7916774 L111.380919,26.2097087 L109.932717,26.2097087 L105.545507,15.8125307 C105.545507,15.8125307 104.906584,14.1631808 104.778801,13.7873851 L104.778801,26.2097087 L103.543543,26.2097087 L103.543543,11.5952104 Z" id="Path" fill="#000000" fill-rule="nonzero"></path>
            <path d="M130.88089,26.2004924 L130.88089,19.6531751 C130.933121,18.72575 130.596048,17.8185865 129.950896,17.1502866 C129.04231,16.2647602 127.680352,16.0343329 126.531032,16.5716854 C125.381711,17.1090379 124.68519,18.3018847 124.782073,19.5669142 L124.782073,26.2004924 L123.530098,26.2004924 L123.530098,15.4089584 L124.782073,15.4089584 L124.782073,16.670343 L124.817825,16.6166472 C125.518646,15.6651496 126.641281,15.1175156 127.822544,15.1509106 C130.630526,15.1509106 132.132869,17.0479741 132.132869,19.6531531 L132.132869,26.2004924 L130.88089,26.2004924 Z" id="Path" fill="#000000" fill-rule="nonzero"></path>
            <path d="M119.877143,12.0894977 L121.424361,12.0894977 L121.424361,13.7471705 L119.877143,13.7471705 L119.877143,12.0894977 Z M120.024476,15.4073872 L121.276948,15.4073872 L121.276948,26.2097087 L120.024476,26.2097087 L120.024476,15.4073872 Z" id="Shape" fill="#000000" fill-rule="nonzero"></path>
            <path d="M134.25475,12.0894977 L135.801964,12.0894977 L135.801964,13.7471705 L134.25475,13.7471705 L134.25475,12.0894977 Z M134.402079,15.4073872 L135.654551,15.4073872 L135.654551,26.2097087 L134.402079,26.2097087 L134.402079,15.4073872 Z" id="Shape" fill="#000000" fill-rule="nonzero"></path>
        </g>
    </g>
</svg>