<svg width="124" height="32" viewBox="0 0 124 32" fill="none" xmlns="http://www.w3.org/2000/svg">
<path d="M123.162 23.1974H121.631L116.559 17.1517L111.487 23.1974H109.956L115.793 16.2388L109.816 9.11328H111.347L116.559 15.3258L121.771 9.11328H123.302L117.325 16.2388L123.162 23.1974Z" fill="black"/>
<path d="M108.82 16.7422H103.313L104.298 15.5685H110.022V16.1554C110.022 20.0446 106.87 23.1974 102.982 23.1974C99.0935 23.1974 95.9414 20.0446 95.9414 16.1554C95.9414 12.2661 99.0935 9.11328 102.982 9.11328C104.933 9.11328 106.698 9.90692 107.973 11.189L107.215 12.0928C106.148 10.9798 104.646 10.287 102.982 10.287C99.7415 10.287 97.1148 12.9143 97.1148 16.1554C97.1148 19.3964 99.7415 22.0237 102.982 22.0237C106.024 22.0237 108.525 19.7077 108.82 16.7422Z" fill="black"/>
<path fill-rule="evenodd" clip-rule="evenodd" d="M57.396 14.6609C58.2023 13.5937 59.4614 12.9654 60.7988 12.963C63.388 12.963 65.5118 15.2242 65.5118 18.0098C65.5118 20.7953 63.4037 23.0605 60.8183 23.0605C59.4817 23.059 58.2226 22.4322 57.4155 21.3665V25.936H56.2891V13.1938H57.396V14.6609ZM57.2043 18.0059C57.2043 20.1889 58.8157 21.9612 60.7988 21.9612V21.9651C62.7818 21.9651 64.3932 20.1889 64.3932 18.0059C64.3932 15.8228 62.7818 14.0506 60.7988 14.0506C58.8157 14.0506 57.2043 15.8228 57.2043 18.0059Z" fill="black"/>
<path fill-rule="evenodd" clip-rule="evenodd" d="M41.7312 16.2844C41.7312 12.4035 44.7468 9.24237 48.4508 9.24237C52.1547 9.24237 55.1703 12.4035 55.1703 16.2844C55.1703 20.1654 52.1547 23.3265 48.4508 23.3265C44.7468 23.3265 41.7312 20.1654 41.7312 16.2844ZM42.7912 16.2884C42.7912 19.5903 45.3218 22.2741 48.4508 22.2741V22.2702C51.572 22.2702 54.1104 19.5747 54.1104 16.2727C54.1104 12.9708 51.572 10.2869 48.4508 10.2869C45.3296 10.2869 42.7912 12.9864 42.7912 16.2884Z" fill="black"/>
<path d="M81.0043 13.0021C80.6266 13.0185 80.2576 13.1202 79.9248 13.2994C79.2389 13.6656 78.7032 14.261 78.4111 14.9817L78.3876 15.0325V13.272H77.2808V22.8062H78.3916V22.7436C78.3916 21.0261 78.3916 19.516 78.3916 17.7985C78.379 17.1701 78.4948 16.5457 78.7318 15.9636C78.9331 15.4478 79.255 14.9876 79.6705 14.6217C80.1409 14.192 80.7829 14.003 81.411 14.1092L81.7357 14.1718C81.7983 13.8549 81.9508 13.452 82.0134 13.1351C81.6852 13.0425 81.3453 12.9977 81.0043 13.0021Z" fill="black"/>
<path fill-rule="evenodd" clip-rule="evenodd" d="M66.4856 18.0254C66.4856 15.2399 68.5938 12.9747 71.1791 12.9747C73.9405 12.9747 75.8688 15.0521 75.857 18.0215V18.3775H67.5964C67.7607 20.3923 69.3017 21.9768 71.1752 21.9768C72.627 21.9387 73.9136 21.0314 74.4372 19.6764L75.4072 20.2397C74.6774 21.934 73.0232 23.0437 71.1791 23.0761C68.5899 23.0761 66.4856 20.8109 66.4856 18.0254ZM74.7384 17.4112C74.5076 15.3924 73.1348 14.0701 71.1791 14.0701V14.074C69.3839 14.074 67.8976 15.5255 67.6277 17.4112H74.7384Z" fill="black"/>
<path fill-rule="evenodd" clip-rule="evenodd" d="M89.8595 14.6609V13.1938H90.9664V22.8062H89.8595V21.3704C89.0524 22.4361 87.7934 23.0629 86.4567 23.0644C83.8674 23.0644 81.7632 20.7992 81.7632 18.0137C81.7632 15.2282 83.8714 12.963 86.4567 12.963C87.794 12.9654 89.0532 13.5937 89.8595 14.6609ZM82.8622 18.0137C82.8622 20.1967 84.4737 21.969 86.4567 21.969V21.9651C88.4397 21.9651 90.0512 20.1967 90.0512 18.0137C90.0512 15.8306 88.4397 14.0584 86.4567 14.0584C84.4737 14.0584 82.8622 15.8306 82.8622 18.0137Z" fill="black"/>
<path fill-rule="evenodd" clip-rule="evenodd" d="M16.2318 0.330888C20.1188 0.345495 23.8377 1.77393 26.72 4.35366C30.0689 7.35024 31.9898 11.6445 31.9898 16.1351C31.9898 20.626 30.0686 24.9203 26.7189 27.9173L26.7155 27.9195C23.8174 30.512 20.0787 31.9393 16.1892 31.9393C15.9372 31.9393 15.6867 31.933 15.4377 31.9213C6.99838 31.5255 0.388184 24.5911 0.388184 16.1351C0.388184 7.42028 7.47653 0.330139 16.1892 0.330139C16.1937 0.330139 16.227 0.330514 16.2318 0.330888ZM15.5069 30.4247C7.86931 30.0663 1.88591 23.7897 1.88591 16.1351C1.88591 8.24648 8.30215 1.82824 16.203 1.82861L16.2427 1.82899C17.4937 1.83348 18.727 2.00165 19.9147 2.32186C16.3344 2.40726 12.9679 4.17164 10.6629 7.16672C8.83534 9.32436 7.74462 12.458 7.67048 15.7804V16.5066C7.74462 19.8047 8.83084 22.9324 10.6517 25.0904C12.9777 28.1038 16.3404 29.863 19.9159 29.9483C18.4945 30.3319 16.9863 30.4952 15.5069 30.4247ZM25.7604 26.7626C24.0765 27.8679 22.1516 28.4536 20.1881 28.4536C16.9743 28.4536 13.9272 26.8896 11.8282 24.1627L11.8061 24.1353C10.196 22.2342 9.23448 19.4414 9.16821 16.4898L9.16783 15.7973C9.23448 12.8284 10.196 10.0356 11.8278 8.10753C13.9272 5.38061 16.9747 3.81659 20.1881 3.81659C22.1516 3.81659 24.0769 4.40235 25.7615 5.50832C28.7678 8.21951 30.492 12.0887 30.492 16.1351C30.492 20.1818 28.7674 24.0514 25.7604 26.7626Z" fill="#FA1E4E"/>
<path d="M19.085 6.17908C21.9038 7.98967 23.8447 11.7757 23.8447 16.1553C23.8447 20.535 21.9038 24.3214 19.085 26.1316C22.6831 25.8333 25.5386 21.4815 25.5386 16.1553C25.5386 10.8292 22.6831 6.47735 19.085 6.17908Z" fill="#FA1E4E"/>
</svg>
